name Walk3.mot
datacolumns 19
datarows 30
range 2.97000000 3.11500000
endheader

                time	   L_ground_force_vx	   L_ground_force_vy	   L_ground_force_vz	   L_ground_force_px	   L_ground_force_py	   L_ground_force_pz	   R_ground_force_vx	   R_ground_force_vy	   R_ground_force_vz	   R_ground_force_px	   R_ground_force_py	   R_ground_force_pz	   L_ground_torque_x	   L_ground_torque_y	   L_ground_torque_z	   R_ground_torque_x	   R_ground_torque_y	   R_ground_torque_z	
          2.97000000	          0.00002555	         -0.00009204	         -0.00002461	          0.00000402	          0.00000000	          0.00000063	         23.89288654	        922.44622756	        -49.82410617	          0.26711607	          0.00000000	          0.11639619	          0.00000000	         -0.00000517	          0.00000000	          0.00000000	          0.40062212	          0.00000000	
          2.97500000	          0.00011365	          0.00022808	         -0.00000728	          0.00000266	          0.00000000	          0.00000044	         25.89685118	        926.73184006	        -50.27926315	          0.26808602	          0.00000000	          0.11649163	          0.00000000	         -0.00000392	          0.00000000	          0.00000000	          0.18955486	          0.00000000	
          2.98000000	          0.00016116	          0.00041533	          0.00000441	          0.00000158	          0.00000000	          0.00000028	         27.79228723	        931.12142931	        -50.77507956	          0.26921655	          0.00000000	          0.11661783	          0.00000000	         -0.00000281	          0.00000000	          0.00000000	         -0.01006216	          0.00000000	
          2.98500000	          0.00017888	          0.00050256	          0.00001156	          0.00000076	          0.00000000	          0.00000016	         29.54960021	        935.56103302	        -51.29488811	          0.27052658	          0.00000000	          0.11677754	          0.00000000	         -0.00000187	          0.00000000	          0.00000000	         -0.19482059	          0.00000000	
          2.99000000	          0.00017610	          0.00051875	          0.00001523	          0.00000018	          0.00000000	          0.00000007	         31.14513089	        940.01100685	        -51.82376897	          0.27203075	          0.00000000	          0.11697256	          0.00000000	         -0.00000113	          0.00000000	          0.00000000	         -0.36235167	          0.00000000	
          2.99500000	          0.00016038	          0.00048811	          0.00001638	         -0.00000021	          0.00000000	          0.00000001	         32.56034687	        944.44350587	        -52.34948496	          0.27373977	          0.00000000	          0.11720344	          0.00000000	         -0.00000056	          0.00000000	          0.00000000	         -0.51123990	          0.00000000	
          3.00000000	          0.00013762	          0.00042986	          0.00001582	         -0.00000045	          0.00000000	         -0.00000004	         33.78265990	        948.83680256	        -52.86379901	          0.27565982	          0.00000000	          0.11746941	          0.00000000	         -0.00000015	          0.00000000	          0.00000000	         -0.64039996	          0.00000000	
          3.00500000	          0.00011214	          0.00035850	          0.00001421	         -0.00000056	          0.00000000	         -0.00000006	         34.80603100	        953.16905061	        -53.36303712	          0.27779201	          0.00000000	          0.11777013	          0.00000000	          0.00000012	          0.00000000	          0.00000000	         -0.74919764	          0.00000000	
          3.01000000	          0.00008693	          0.00028439	          0.00001205	         -0.00000059	          0.00000000	         -0.00000007	         35.63255342	        957.41250641	        -53.84843591	          0.28013275	          0.00000000	          0.11810545	          0.00000000	          0.00000029	          0.00000000	          0.00000000	         -0.83776236	          0.00000000	
          3.01500000	          0.00006389	          0.00021437	          0.00000972	         -0.00000056	          0.00000000	         -0.00000007	         36.27466485	        961.52901548	        -54.32609261	          0.28267440	          0.00000000	          0.11847425	          0.00000000	          0.00000037	          0.00000000	          0.00000000	         -0.90728657	          0.00000000	
          3.02000000	          0.00004406	          0.00015252	          0.00000745	         -0.00000050	          0.00000000	         -0.00000007	         36.75517973	        965.47083836	        -54.80608325	          0.28540549	          0.00000000	          0.11887517	          0.00000000	          0.00000040	          0.00000000	          0.00000000	         -0.96040157	          0.00000000	
          3.02500000	          0.00002786	          0.00010079	          0.00000541	         -0.00000042	          0.00000000	         -0.00000006	         37.10464501	        969.18312495	        -55.30149735	          0.28831207	          0.00000000	          0.11930659	          0.00000000	          0.00000038	          0.00000000	          0.00000000	         -1.00089859	          0.00000000	
          3.03000000	          0.00001527	          0.00005965	          0.00000367	         -0.00000033	          0.00000000	         -0.00000005	         37.35541490	        972.60392982	        -55.82575060	          0.29137903	          0.00000000	          0.11976582	          0.00000000	          0.00000034	          0.00000000	          0.00000000	         -1.03275866	          0.00000000	
          3.03500000	          0.00000599	          0.00002854	          0.00000227	         -0.00000025	          0.00000000	         -0.00000004	         37.53707845	        975.66921301	        -56.38846132	          0.29459114	          0.00000000	          0.12024998	          0.00000000	          0.00000029	          0.00000000	          0.00000000	         -1.05959557	          0.00000000	
          3.04000000	         -0.00000044	          0.00000634	          0.00000119	         -0.00000018	          0.00000000	         -0.00000003	         37.67530191	        978.31637625	        -56.99478230	          0.29793257	          0.00000000	          0.12075558	          0.00000000	          0.00000023	          0.00000000	          0.00000000	         -1.08415960	          0.00000000	
          3.04500000	         -0.00000453	         -0.00000840	          0.00000040	         -0.00000012	          0.00000000	         -0.00000002	         37.79113478	        980.49480069	        -57.64544557	          0.30138907	          0.00000000	          0.12127894	          0.00000000	          0.00000018	          0.00000000	          0.00000000	         -1.10852272	          0.00000000	
          3.05000000	         -0.00000679	         -0.00001719	         -0.00000014	         -0.00000007	          0.00000000	         -0.00000001	         37.90156546	        982.17548225	        -58.33562500	          0.30494938	          0.00000000	          0.12181724	          0.00000000	          0.00000013	          0.00000000	          0.00000000	         -1.13419368	          0.00000000	
          3.05500000	         -0.00000770	         -0.00002146	         -0.00000047	         -0.00000004	          0.00000000	         -0.00000001	         38.02005013	        983.35518913	        -59.05435195	          0.30860343	          0.00000000	          0.12236817	          0.00000000	          0.00000009	          0.00000000	          0.00000000	         -1.16213612	          0.00000000	
          3.06000000	         -0.00000768	         -0.00002251	         -0.00000065	         -0.00000001	          0.00000000	         -0.00000000	         38.15510547	        984.06002043	        -59.78550511	          0.31234256	          0.00000000	          0.12293056	          0.00000000	          0.00000005	          0.00000000	          0.00000000	         -1.19322279	          0.00000000	
          3.06500000	         -0.00000706	         -0.00002140	         -0.00000071	          0.00000001	          0.00000000	         -0.00000000	         38.31046987	        984.34176001	        -60.50971894	          0.31615981	          0.00000000	          0.12350422	          0.00000000	          0.00000003	          0.00000000	          0.00000000	         -1.22835095	          0.00000000	
          3.07000000	         -0.00000610	         -0.00001899	         -0.00000069	          0.00000002	          0.00000000	          0.00000000	         38.48645345	        984.26896819	        -61.20565914	          0.32004850	          0.00000000	          0.12408854	          0.00000000	          0.00000001	          0.00000000	          0.00000000	         -1.26797642	          0.00000000	
          3.07500000	         -0.00000500	         -0.00001595	         -0.00000063	          0.00000002	          0.00000000	          0.00000000	         38.68126644	        983.92120784	        -61.85143646	          0.32400099	          0.00000000	          0.12468192	          0.00000000	         -0.00000000	          0.00000000	          0.00000000	         -1.31215884	          0.00000000	
          3.08000000	         -0.00000391	         -0.00001274	         -0.00000054	          0.00000003	          0.00000000	          0.00000000	         38.89192984	        983.38657710	        -62.42820514	          0.32800762	          0.00000000	          0.12528136	          0.00000000	         -0.00000001	          0.00000000	          0.00000000	         -1.36135204	          0.00000000	
          3.08500000	         -0.00000289	         -0.00000967	         -0.00000043	          0.00000002	          0.00000000	          0.00000000	         39.11473520	        982.76071637	        -62.92383529	          0.33205515	          0.00000000	          0.12588288	          0.00000000	         -0.00000002	          0.00000000	          0.00000000	         -1.41621494	          0.00000000	
          3.09000000	         -0.00000201	         -0.00000694	         -0.00000034	          0.00000002	          0.00000000	          0.00000000	         39.34610601	        982.14631298	        -63.33387465	          0.33612666	          0.00000000	          0.12648290	          0.00000000	         -0.00000002	          0.00000000	          0.00000000	         -1.47762899	          0.00000000	
          3.09500000	         -0.00000129	         -0.00000464	         -0.00000025	          0.00000002	          0.00000000	          0.00000000	         39.58527166	        981.65078699	        -63.66147613	          0.34020267	          0.00000000	          0.12707810	          0.00000000	         -0.00000002	          0.00000000	          0.00000000	         -1.54688197	          0.00000000	
          3.10000000	         -0.00000073	         -0.00000279	         -0.00000017	          0.00000001	          0.00000000	          0.00000000	         39.83541469	        981.38575943	        -63.91697281	          0.34426141	          0.00000000	          0.12766444	          0.00000000	         -0.00000002	          0.00000000	          0.00000000	         -1.62575345	          0.00000000	
          3.10500000	         -0.00000031	         -0.00000139	         -0.00000011	          0.00000001	          0.00000000	          0.00000000	         40.10413449	        981.46826292	        -64.11685029	          0.34827868	          0.00000000	          0.12823708	          0.00000000	         -0.00000001	          0.00000000	          0.00000000	         -1.71671432	          0.00000000	
          3.11000000	         -0.00000001	         -0.00000038	         -0.00000006	          0.00000001	          0.00000000	          0.00000000	         40.40525852	        982.01393611	        -64.28304196	          0.35222767	          0.00000000	          0.12878991	          0.00000000	         -0.00000001	          0.00000000	          0.00000000	         -1.82330199	          0.00000000	
          3.11500000	          0.00000018	          0.00000030	         -0.00000002	          0.00000001	          0.00000000	          0.00000000	         40.76040803	        983.12769473	        -64.44128077	          0.35607988	          0.00000000	          0.12931449	          0.00000000	         -0.00000001	          0.00000000	          0.00000000	         -1.95057234	          0.00000000	
